<svg width="64" height="64" viewBox="0 0 64 64" fill="none" xmlns="http://www.w3.org/2000/svg">
<path d="M51.7242 47.5659V47.6492H51.8009C51.8179 47.6492 51.8325 47.6451 51.843 47.6387C51.8527 47.6322 51.8583 47.6209 51.8583 47.6071C51.8583 47.5934 51.8527 47.5829 51.843 47.5764C51.8325 47.5691 51.8179 47.5659 51.8009 47.5659H51.7242ZM51.8018 47.5077C51.8414 47.5077 51.8721 47.5166 51.8939 47.5344C51.9157 47.5522 51.9262 47.5764 51.9262 47.6071C51.9262 47.633 51.9182 47.654 51.9004 47.671C51.8834 47.6872 51.8591 47.6977 51.8268 47.7017L51.9287 47.8189H51.8494L51.7549 47.7025H51.7242V47.8189H51.6579V47.5077H51.8018ZM51.7815 47.9264C51.8179 47.9264 51.8519 47.9192 51.8826 47.9054C51.9141 47.8917 51.9416 47.8731 51.965 47.8496C51.9885 47.8262 52.0071 47.7987 52.0208 47.7664C52.0338 47.7349 52.041 47.7009 52.041 47.6645C52.041 47.6282 52.0338 47.5942 52.0208 47.5627C52.0071 47.5311 51.9885 47.5029 51.965 47.4794C51.9416 47.456 51.9141 47.4374 51.8826 47.4236C51.8519 47.4107 51.8179 47.4042 51.7815 47.4042C51.7452 47.4042 51.7104 47.4107 51.6789 47.4236C51.6465 47.4374 51.6183 47.456 51.5948 47.4794C51.5714 47.5029 51.5528 47.5311 51.5398 47.5627C51.5261 47.5942 51.5196 47.6282 51.5196 47.6645C51.5196 47.7009 51.5261 47.7349 51.5398 47.7664C51.5528 47.7987 51.5714 47.8262 51.5948 47.8496C51.6183 47.8731 51.6465 47.8917 51.6789 47.9054C51.7104 47.9192 51.7452 47.9264 51.7815 47.9264ZM51.7815 47.3291C51.8292 47.3291 51.8729 47.3379 51.9149 47.3557C51.9562 47.3727 51.9917 47.397 52.0232 47.4277C52.054 47.4576 52.0782 47.4932 52.096 47.5344C52.1138 47.5748 52.1227 47.6185 52.1227 47.6645C52.1227 47.7106 52.1138 47.7543 52.096 47.7947C52.0782 47.8351 52.054 47.8707 52.0232 47.9014C51.9917 47.9313 51.9562 47.9555 51.9149 47.9733C51.8729 47.9911 51.8292 48 51.7815 48C51.733 48 51.6886 47.9911 51.6465 47.9733C51.6045 47.9555 51.5681 47.9313 51.5374 47.9014C51.5067 47.8707 51.4825 47.8351 51.4647 47.7947C51.4469 47.7543 51.438 47.7106 51.438 47.6645C51.438 47.6185 51.4469 47.5748 51.4647 47.5344C51.4825 47.4932 51.5067 47.4576 51.5374 47.4277C51.5681 47.397 51.6045 47.3727 51.6465 47.3557C51.6886 47.3379 51.733 47.3291 51.7815 47.3291ZM20.2868 46.1303C20.2868 45.5369 20.6756 45.0495 21.311 45.0495C21.9181 45.0495 22.3279 45.5159 22.3279 46.1303C22.3279 46.7446 21.9181 47.211 21.311 47.211C20.6756 47.211 20.2868 46.7236 20.2868 46.1303ZM23.0199 44.4424H22.2859V44.8522C22.0531 44.5483 21.6998 44.3575 21.2197 44.3575C20.2731 44.3575 19.531 45.0996 19.531 46.1303C19.531 47.1617 20.2731 47.903 21.2197 47.903C21.6998 47.903 22.0531 47.7122 22.2859 47.4083V47.8181H23.0199V44.4424ZM47.8238 46.1303C47.8238 45.5369 48.2126 45.0495 48.848 45.0495C49.4559 45.0495 49.8649 45.5159 49.8649 46.1303C49.8649 46.7446 49.4559 47.211 48.848 47.211C48.2126 47.211 47.8238 46.7236 47.8238 46.1303ZM50.5577 43.0868H49.8229V44.8522C49.5901 44.5483 49.2368 44.3575 48.7566 44.3575C47.81 44.3575 47.068 45.0996 47.068 46.1303C47.068 47.1617 47.81 47.903 48.7566 47.903C49.2368 47.903 49.5901 47.7122 49.8229 47.4083V47.8181H50.5577V43.0868ZM32.131 45.0147C32.6039 45.0147 32.9078 45.3114 32.9854 45.8336H31.2337C31.3121 45.3461 31.608 45.0147 32.131 45.0147ZM32.1455 44.3575C31.1561 44.3575 30.4641 45.0778 30.4641 46.1303C30.4641 47.2038 31.1844 47.903 32.1948 47.903C32.7033 47.903 33.1689 47.7761 33.5788 47.4301L33.219 46.8861C32.9361 47.1116 32.5756 47.2393 32.2369 47.2393C31.764 47.2393 31.3331 47.0203 31.2272 46.4124H33.734C33.7413 46.321 33.7485 46.2289 33.7485 46.1303C33.7412 45.0778 33.0913 44.3575 32.1455 44.3575ZM41.0085 46.1303C41.0085 45.5369 41.3973 45.0495 42.0327 45.0495C42.6397 45.0495 43.0496 45.5159 43.0496 46.1303C43.0496 46.7446 42.6397 47.211 42.0327 47.211C41.3973 47.211 41.0085 46.7236 41.0085 46.1303ZM43.7415 44.4424H43.0075V44.8522C42.7739 44.5483 42.4215 44.3575 41.9413 44.3575C40.9947 44.3575 40.2526 45.0996 40.2526 46.1303C40.2526 47.1617 40.9947 47.903 41.9413 47.903C42.4215 47.903 42.7739 47.7122 43.0075 47.4083V47.8181H43.7415V44.4424ZM36.8632 46.1303C36.8632 47.1544 37.5761 47.903 38.6642 47.903C39.1727 47.903 39.5114 47.7898 39.8784 47.5004L39.5259 46.9071C39.2503 47.1051 38.9609 47.211 38.6424 47.211C38.0563 47.2038 37.6254 46.7802 37.6254 46.1303C37.6254 45.4803 38.0563 45.0567 38.6424 45.0495C38.9609 45.0495 39.2503 45.1554 39.5259 45.3534L39.8784 44.7601C39.5114 44.4707 39.1727 44.3575 38.6642 44.3575C37.5761 44.3575 36.8632 45.1061 36.8632 46.1303ZM46.3267 44.3575C45.9031 44.3575 45.6275 44.5556 45.4367 44.8522V44.4424H44.7092V47.8181H45.444V45.9257C45.444 45.3672 45.684 45.0567 46.1642 45.0567C46.313 45.0567 46.4682 45.0778 46.6234 45.1416L46.8497 44.4497C46.6872 44.3858 46.4754 44.3575 46.3267 44.3575ZM26.6503 44.7108C26.297 44.4779 25.8104 44.3575 25.2736 44.3575C24.4184 44.3575 23.8679 44.7673 23.8679 45.4383C23.8679 45.9888 24.2777 46.3283 25.0327 46.4342L25.3795 46.4835C25.7821 46.5401 25.972 46.646 25.972 46.8368C25.972 47.0979 25.7037 47.2466 25.2025 47.2466C24.694 47.2466 24.327 47.0841 24.0797 46.8933L23.7337 47.4649C24.1362 47.7615 24.6447 47.903 25.1952 47.903C26.1701 47.903 26.7351 47.4438 26.7351 46.8012C26.7351 46.2079 26.2905 45.8974 25.5557 45.7915L25.2098 45.7414C24.8921 45.6994 24.6374 45.6363 24.6374 45.41C24.6374 45.1626 24.8775 45.0147 25.2801 45.0147C25.7109 45.0147 26.1281 45.1772 26.3326 45.3041L26.6503 44.7108ZM36.1211 44.3575C35.6975 44.3575 35.4218 44.5556 35.2319 44.8522V44.4424H34.5043V47.8181H35.2383V45.9257C35.2383 45.3672 35.4784 45.0567 35.9586 45.0567C36.1073 45.0567 36.2625 45.0778 36.4177 45.1416L36.6441 44.4497C36.4816 44.3858 36.2698 44.3575 36.1211 44.3575ZM29.8571 44.4424H28.6566V43.4182H27.9145V44.4424H27.2299V45.1133H27.9145V46.6533C27.9145 47.4366 28.2185 47.903 29.0867 47.903C29.4052 47.903 29.7722 47.8044 30.005 47.6419L29.7932 47.013C29.5741 47.1399 29.334 47.2038 29.1433 47.2038C28.7763 47.2038 28.6566 46.9774 28.6566 46.6387V45.1133H29.8571V44.4424ZM18.8819 47.8181V45.6994C18.8819 44.9015 18.3734 44.3648 17.5537 44.3575C17.1229 44.3502 16.6783 44.4844 16.367 44.9581C16.1342 44.5838 15.7672 44.3575 15.2515 44.3575C14.891 44.3575 14.5385 44.4634 14.2629 44.8587V44.4424H13.5281V47.8181H14.2693V45.9468C14.2693 45.3607 14.5943 45.0495 15.0963 45.0495C15.5837 45.0495 15.8303 45.3672 15.8303 45.9395V47.8181H16.5724V45.9468C16.5724 45.3607 16.9111 45.0495 17.3985 45.0495C17.8997 45.0495 18.1398 45.3672 18.1398 45.9395V47.8181H18.8819Z" fill="#231F20"/>
<path d="M52.1768 36.5915V36.0984H52.0483L51.8995 36.4372L51.7516 36.0984H51.6223V36.5915H51.7136V36.2197L51.8526 36.5406H51.9472L52.0863 36.2189V36.5915H52.1768ZM51.3612 36.5915V36.1825H51.5261V36.0993H51.1057V36.1825H51.2706V36.5915H51.3612Z" fill="#F79410"/>
<path d="M37.5616 38.7127H26.4372V18.7202H37.5616V38.7127Z" fill="#FF5F00"/>
<path d="M27.1498 28.7148C27.1498 24.6592 29.0486 21.0466 32.0056 18.7185C29.8433 17.0161 27.1142 16 24.1483 16C17.1269 16 11.4352 21.6925 11.4352 28.7148C11.4352 35.7371 17.1269 41.4296 24.1483 41.4296C27.1142 41.4296 29.8433 40.4135 32.0056 38.711C29.0486 36.3829 27.1498 32.7704 27.1498 28.7148Z" fill="#EB001B"/>
<path d="M52.5648 28.7148C52.5648 35.7371 46.8731 41.4296 39.8517 41.4296C36.8858 41.4296 34.1567 40.4135 31.9936 38.711C34.9514 36.3829 36.8502 32.7704 36.8502 28.7148C36.8502 24.6592 34.9514 21.0466 31.9936 18.7185C34.1567 17.0161 36.8858 16 39.8517 16C46.8731 16 52.5648 21.6925 52.5648 28.7148Z" fill="#F79E1B"/>
</svg>
