<svg width="78" height="70" viewBox="0 0 78 70" fill="none" xmlns="http://www.w3.org/2000/svg">
<path d="M2.9082 3.43945H14.5446L23.2718 52.894H69.8173M23.2718 41.2576H68.6246C68.961 41.2579 69.287 41.1415 69.5473 40.9283C69.8075 40.7152 69.9858 40.4184 70.0518 40.0885L75.2882 13.9067C75.3305 13.6956 75.3253 13.4777 75.2732 13.2689C75.221 13.06 75.1231 12.8653 74.9865 12.6988C74.85 12.5323 74.6782 12.3982 74.4836 12.3062C74.2889 12.2142 74.0762 12.1666 73.8609 12.1667H17.4537M29.09 64.5304C29.09 66.137 27.7876 67.4395 26.1809 67.4395C24.5743 67.4395 23.2718 66.137 23.2718 64.5304C23.2718 62.9237 24.5743 61.6213 26.1809 61.6213C27.7876 61.6213 29.09 62.9237 29.09 64.5304ZM69.8173 64.5304C69.8173 66.137 68.5149 67.4395 66.9082 67.4395C65.3016 67.4395 63.9991 66.137 63.9991 64.5304C63.9991 62.9237 65.3016 61.6213 66.9082 61.6213C68.5149 61.6213 69.8173 62.9237 69.8173 64.5304Z" stroke="#6CC5FF" stroke-width="5" stroke-linecap="round" stroke-linejoin="round"/>
</svg>
