<svg width="118" height="104" viewBox="0 0 118 104" fill="none" xmlns="http://www.w3.org/2000/svg">
<path d="M113.084 4L95.6294 4L82.5385 78.1818L12.7203 78.1818M82.5385 60.7273L14.5094 60.7273C14.0048 60.7276 13.5157 60.5531 13.1254 60.2333C12.735 59.9136 12.4676 59.4684 12.3685 58.9736L4.51397 19.7009C4.45059 19.3842 4.45831 19.0574 4.53656 18.7441C4.61481 18.4308 4.76165 18.1387 4.96647 17.889C5.17129 17.6393 5.42898 17.4382 5.72096 17.3002C6.01294 17.1622 6.33193 17.0907 6.65489 17.0909L91.2658 17.0909M73.8113 95.6364C73.8113 98.0463 75.7649 100 78.1749 100C80.5849 100 82.5385 98.0463 82.5385 95.6364C82.5385 93.2264 80.5849 91.2727 78.1749 91.2727C75.7649 91.2727 73.8113 93.2264 73.8113 95.6364ZM12.7203 95.6364C12.7203 98.0463 14.674 100 17.084 100C19.4939 100 21.4476 98.0463 21.4476 95.6364C21.4476 93.2264 19.4939 91.2727 17.084 91.2727C14.674 91.2727 12.7203 93.2264 12.7203 95.6364Z" stroke="#6CC5FF" stroke-width="8" stroke-linecap="round" stroke-linejoin="round"/>
</svg>
