<svg width="183" height="56" viewBox="0 0 183 56" fill="none" xmlns="http://www.w3.org/2000/svg">
<rect width="183" height="56" rx="8" fill="black"/>
<path fill-rule="evenodd" clip-rule="evenodd" d="M66.7614 15.6355C66.7832 16.0788 66.7146 16.522 66.5597 16.9379C66.4047 17.3539 66.1668 17.734 65.8603 18.055C65.5169 18.4118 65.1019 18.692 64.6425 18.877C64.1832 19.0621 63.6899 19.1479 63.195 19.1287C62.6888 19.1428 62.1849 19.0552 61.7131 18.8712C61.2413 18.6872 60.8112 18.4105 60.4482 18.0575C60.0852 17.7044 59.7966 17.2821 59.5996 16.8156C59.4025 16.3491 59.301 15.8479 59.301 15.3415C59.301 14.8351 59.4025 14.3338 59.5996 13.8673C59.7966 13.4008 60.0852 12.9785 60.4482 12.6255C60.8112 12.2724 61.2413 11.9957 61.7131 11.8117C62.1849 11.6277 62.6888 11.5401 63.195 11.5542C63.7062 11.5491 64.2129 11.6486 64.6842 11.8468C65.1206 12.0232 65.5095 12.2998 65.8193 12.6542L65.1815 13.292C64.938 13.0065 64.6324 12.7806 64.2881 12.6315C63.9437 12.4824 63.5698 12.4141 63.195 12.4319C62.7208 12.4334 62.2543 12.5512 61.8363 12.7752C61.4183 12.9991 61.0617 13.3222 60.7978 13.7161C60.5338 14.11 60.3706 14.5627 60.3225 15.0345C60.2744 15.5062 60.3429 15.9825 60.5219 16.4216C60.7009 16.8607 60.985 17.2492 61.3491 17.5528C61.7133 17.8565 62.1465 18.0661 62.6106 18.1632C63.0747 18.2604 63.5556 18.2421 64.011 18.11C64.4664 17.9779 64.8824 17.736 65.2225 17.4055C65.5927 17.0059 65.8075 16.487 65.8281 15.9427H63.195V15.065H66.7058C66.7424 15.2529 66.761 15.444 66.7614 15.6355Z" fill="white"/>
<path fill-rule="evenodd" clip-rule="evenodd" d="M72.3318 12.6165H69.0288V14.9131H72.0042V15.7908H69.0288V18.0904H72.3318V18.9681H68.0984V11.7242H72.3318V12.6165Z" fill="white"/>
<path fill-rule="evenodd" clip-rule="evenodd" d="M76.261 18.9769H75.3277V12.6165H73.3032V11.7242H78.2768V12.6165H76.2522L76.261 18.9769Z" fill="white"/>
<path fill-rule="evenodd" clip-rule="evenodd" d="M81.8899 18.9769H82.8232V11.7242H81.8899V18.9769Z" fill="white"/>
<path fill-rule="evenodd" clip-rule="evenodd" d="M86.9543 18.9769H86.021V12.6165H83.9964V11.7242H88.9701V12.6165H86.9455L86.9543 18.9769Z" fill="white"/>
<path fill-rule="evenodd" clip-rule="evenodd" d="M93.7857 17.4318C94.3087 17.9524 95.0167 18.2447 95.7546 18.2447C96.4926 18.2447 97.2006 17.9524 97.7236 17.4318C98.2431 16.863 98.5312 16.1205 98.5312 15.3502C98.5312 14.5799 98.2431 13.8374 97.7236 13.2686C97.4652 13.0098 97.1583 12.8044 96.8204 12.6643C96.4826 12.5242 96.1204 12.4521 95.7546 12.4521C95.3889 12.4521 95.0267 12.5242 94.6889 12.6643C94.351 12.8044 94.0441 13.0098 93.7857 13.2686C93.2662 13.8374 92.9781 14.5799 92.9781 15.3502C92.9781 16.1205 93.2662 16.863 93.7857 17.4318ZM98.4141 18.0374C97.7082 18.7417 96.7518 19.1372 95.7546 19.1372C94.7575 19.1372 93.8011 18.7417 93.0952 18.0374C92.4091 17.3104 92.0269 16.3485 92.0269 15.3488C92.0269 14.349 92.4091 13.3872 93.0952 12.6601C93.4441 12.3112 93.8582 12.0344 94.314 11.8456C94.7698 11.6568 95.2584 11.5596 95.7517 11.5596C96.2451 11.5596 96.7336 11.6568 97.1894 11.8456C97.6452 12.0344 98.0594 12.3112 98.4082 12.6601C99.0959 13.3852 99.4793 14.3465 99.4793 15.3458C99.4793 16.3452 99.0959 17.3065 98.4082 18.0316L98.4141 18.0374Z" fill="white"/>
<path fill-rule="evenodd" clip-rule="evenodd" d="M100.79 18.9769V11.7242H101.922L105.447 17.3648H105.488L105.447 15.9693V11.7242H106.381V18.9769H105.409L101.723 13.0612H101.682L101.723 14.4596V18.9769H100.79Z" fill="white"/>
<path fill-rule="evenodd" clip-rule="evenodd" d="M138.692 39.5209H140.944V24.4128H138.692V39.5209ZM159.001 29.8662L156.418 36.408H156.339L153.656 29.8574H151.231L155.254 39.0147L152.957 44.1054H155.298L161.5 29.8574L159.001 29.8662ZM146.213 37.8181C145.476 37.8181 144.443 37.4466 144.443 36.5338C144.443 35.3635 145.728 34.9217 146.837 34.9217C147.552 34.9047 148.259 35.0794 148.885 35.4279C148.799 36.0789 148.482 36.6775 147.992 37.1142C147.501 37.5509 146.87 37.7966 146.213 37.8064V37.8181ZM146.486 29.5385C144.853 29.5385 143.162 30.2553 142.463 31.8498L144.464 32.6865C144.891 31.8498 145.69 31.5777 146.512 31.5777C147.682 31.5777 148.852 32.2769 148.885 33.5203V33.6754C148.163 33.2932 147.36 33.0924 146.544 33.0903C144.385 33.0903 142.191 34.2781 142.191 36.4928C142.191 38.5144 143.946 39.8164 145.941 39.8164C147.457 39.8164 148.282 39.1376 148.817 38.3389H148.896V39.5092H151.073V33.7164C151.073 31.0218 149.069 29.5268 146.486 29.5268V29.5385ZM132.548 31.7064H129.329V26.528H132.548C133.234 26.528 133.893 26.8008 134.379 27.2864C134.864 27.772 135.137 28.4305 135.137 29.1172C135.137 29.8039 134.864 30.4625 134.379 30.9481C133.893 31.4336 133.234 31.7064 132.548 31.7064ZM132.492 24.4128H127.088V39.5209H129.341V33.7983H132.492C134.991 33.7983 137.448 31.9873 137.448 29.1172C137.448 26.2472 134.991 24.4128 132.492 24.4128ZM103.025 37.8094C101.468 37.8094 100.164 36.5045 100.164 34.714C100.164 32.9235 101.468 31.5777 103.025 31.5777C104.581 31.5777 105.769 32.9001 105.769 34.714C105.769 36.5279 104.561 37.8094 103.025 37.8094ZM105.614 30.7029H105.535C105.192 30.3293 104.773 30.0334 104.306 29.8351C103.84 29.6368 103.336 29.5407 102.829 29.5532C100.26 29.5532 97.905 31.8118 97.905 34.714C97.905 37.6163 100.246 39.8339 102.829 39.8339C103.338 39.8467 103.844 39.7487 104.311 39.5466C104.778 39.3446 105.196 39.0433 105.535 38.6636H105.614V39.4009C105.614 41.3699 104.561 42.4202 102.87 42.4202C102.305 42.4071 101.756 42.2259 101.295 41.8997C100.833 41.5735 100.479 41.1171 100.278 40.5887L98.3117 41.4079C98.6827 42.3104 99.3148 43.0816 100.127 43.6226C100.939 44.1636 101.894 44.4499 102.87 44.4447C105.518 44.4447 107.756 42.8883 107.756 39.0908V29.8633H105.614V30.7029ZM109.315 39.5209H111.571V24.4128H109.315V39.5209ZM114.9 34.5473C114.876 34.173 114.927 33.7977 115.05 33.4433C115.172 33.0889 115.364 32.7625 115.615 32.4832C115.865 32.204 116.169 31.9775 116.508 31.817C116.847 31.6565 117.214 31.5652 117.589 31.5485C118.484 31.5485 119.245 31.9961 119.496 32.6368L114.9 34.5473ZM121.922 32.8328C121.495 31.683 120.19 29.5619 117.533 29.5619C114.877 29.5619 112.685 31.645 112.685 34.7023C112.67 35.3783 112.792 36.0503 113.042 36.6782C113.293 37.3062 113.668 37.8771 114.144 38.357C114.62 38.8368 115.188 39.2157 115.815 39.471C116.441 39.7263 117.112 39.8527 117.788 39.8427C118.635 39.8471 119.469 39.6412 120.217 39.2434C120.964 38.8456 121.602 38.2684 122.071 37.5636L120.316 36.3933C120.054 36.83 119.683 37.1909 119.239 37.4403C118.795 37.6896 118.294 37.8189 117.785 37.8152C117.261 37.8355 116.743 37.6976 116.298 37.4194C115.854 37.1413 115.503 36.7359 115.292 36.2558L122.165 33.4121L121.922 32.8328ZM67.1534 31.1418V33.3214H72.3728C72.2148 34.5502 71.8052 35.4454 71.185 36.0657C70.4243 36.8263 69.2365 37.666 67.1534 37.666C65.6369 37.6319 64.194 37.0056 63.1335 35.921C62.073 34.8365 61.4792 33.3798 61.4792 31.863C61.4792 30.3461 62.073 28.8895 63.1335 27.8049C64.194 26.7203 65.6369 26.094 67.1534 26.0599C68.6184 26.0412 70.0315 26.6016 71.0855 27.6193L72.6244 26.0804C71.9051 25.3675 71.0506 24.8054 70.1111 24.4271C69.1717 24.0488 68.1661 23.8619 67.1534 23.8774C62.765 23.8774 59.0523 27.4613 59.0523 31.8615C59.0523 36.2617 62.7533 39.8456 67.1534 39.8456C69.5291 39.8456 71.3196 39.0645 72.7122 37.6046C74.1048 36.1447 74.6022 34.1406 74.6022 32.5051C74.6061 32.048 74.5669 31.5915 74.4851 31.1418H67.1534ZM80.5412 37.8094C78.9848 37.8094 77.6419 36.5221 77.6419 34.6935C77.6419 32.865 78.9848 31.5777 80.5412 31.5777C82.0977 31.5777 83.4435 32.8445 83.4435 34.6935C83.4435 36.5426 82.1006 37.8094 80.5412 37.8094ZM80.5412 29.5532C79.5255 29.5572 78.5336 29.8621 77.691 30.4294C76.8484 30.9967 76.1927 31.8009 75.8068 32.7405C75.4208 33.6802 75.322 34.7131 75.5226 35.7089C75.7233 36.7046 76.2145 37.6187 76.9342 38.3355C77.6539 39.0524 78.5698 39.5399 79.5664 39.7366C80.563 39.9333 81.5955 39.8303 82.5336 39.4406C83.4716 39.051 84.2733 38.3921 84.8372 37.5472C85.4011 36.7024 85.7021 35.7093 85.7021 34.6935C85.712 34.014 85.5852 33.3394 85.3291 32.7099C85.073 32.0805 84.6928 31.5089 84.2113 31.0293C83.7298 30.5497 83.1568 30.1719 82.5263 29.9183C81.8958 29.6647 81.2207 29.5405 80.5412 29.5532ZM91.7992 37.8094C90.2398 37.8094 88.8969 36.5221 88.8969 34.6935C88.8969 32.865 90.2398 31.5777 91.7992 31.5777C93.3585 31.5777 94.6985 32.8445 94.6985 34.6935C94.6985 36.5426 93.3556 37.8094 91.7992 37.8094ZM91.7992 29.5532C90.7832 29.5566 89.7911 29.8611 88.9481 30.428C88.1051 30.9949 87.449 31.799 87.0626 32.7385C86.6762 33.6781 86.5769 34.7111 86.7773 35.7071C86.9776 36.7031 87.4685 37.6174 88.1881 38.3345C88.9077 39.0516 89.8237 39.5395 90.8203 39.7364C91.817 39.9333 92.8496 39.8305 93.7879 39.4409C94.7261 39.0513 95.5279 38.3925 96.092 37.5475C96.6561 36.7026 96.9571 35.7095 96.9571 34.6935C96.967 34.0143 96.8402 33.3399 96.5843 32.7106C96.3284 32.0813 95.9485 31.5099 95.4674 31.0304C94.9862 30.5508 94.4135 30.1729 93.7833 29.9192C93.1532 29.6654 92.4784 29.5409 91.7992 29.5532Z" fill="white"/>
<path fill-rule="evenodd" clip-rule="evenodd" d="M22.0632 12.3736C21.6676 12.8486 21.4678 13.4564 21.5044 14.0734V40.7964C21.4671 41.4126 21.667 42.0198 22.0632 42.4933L22.1539 42.581L37.1274 27.6075V27.2535L22.1539 12.2859L22.0632 12.3736Z" fill="url(#paint0_linear_901_20817)"/>
<path fill-rule="evenodd" clip-rule="evenodd" d="M37.1274 27.2591V27.6131L42.101 32.6072L42.2151 32.5429L48.1279 29.1842C49.8189 28.2217 49.8189 26.6506 48.1279 25.6939L42.2151 22.3323L42.1039 22.268L37.1274 27.2591Z" fill="url(#paint1_linear_901_20817)"/>
<path fill-rule="evenodd" clip-rule="evenodd" d="M22.0632 42.4988C22.6191 43.084 23.5407 43.16 24.5763 42.5749L42.2298 32.5428L37.1274 27.4376L22.0632 42.4988Z" fill="url(#paint2_linear_901_20817)"/>
<path fill-rule="evenodd" clip-rule="evenodd" d="M37.1274 27.4376L42.2297 22.3323L24.5763 12.3002C24.1671 12.0509 23.7007 11.9108 23.2218 11.8936C23.0039 11.8864 22.787 11.9255 22.5853 12.0082C22.3836 12.0909 22.2017 12.2153 22.0515 12.3734L37.1274 27.4376Z" fill="url(#paint3_linear_901_20817)"/>
<path fill-rule="evenodd" clip-rule="evenodd" d="M24.5763 12.4788L48.1425 25.8754C48.909 26.3084 49.3391 26.8701 49.4093 27.4435C49.4093 26.8116 48.988 26.1767 48.1425 25.6881L24.5763 12.3002C22.8853 11.3406 21.5044 12.1396 21.5044 14.0734L21.5044 14.2488C21.5044 12.315 22.8853 11.5192 24.5763 12.4788Z" fill="white"/>
<defs>
<linearGradient id="paint0_linear_901_20817" x1="109.572" y1="12.1166" x2="108.527" y2="45.5622" gradientUnits="userSpaceOnUse">
<stop stop-color="#4598D3"/>
<stop offset="0.31" stop-color="#3FB9EB"/>
<stop offset="0.5" stop-color="#4AC1ED"/>
<stop offset="0.75" stop-color="#5CC4E6"/>
<stop offset="1" stop-color="#60C4E5"/>
</linearGradient>
<linearGradient id="paint1_linear_901_20817" x1="161.65" y1="27.9941" x2="21.4833" y2="27.9941" gradientUnits="userSpaceOnUse">
<stop stop-color="#FFE00A"/>
<stop offset="0.39" stop-color="#FBBC0F"/>
<stop offset="0.73" stop-color="#F7A418"/>
<stop offset="1" stop-color="#F59A1B"/>
</linearGradient>
<linearGradient id="paint2_linear_901_20817" x1="135.208" y1="19.5704" x2="109.322" y2="104.472" gradientUnits="userSpaceOnUse">
<stop stop-color="#E8404A"/>
<stop offset="1" stop-color="#C31262"/>
</linearGradient>
<linearGradient id="paint3_linear_901_20817" x1="46.5435" y1="9.53172" x2="61.328" y2="57.7624" gradientUnits="userSpaceOnUse">
<stop stop-color="#32A071"/>
<stop offset="0.13" stop-color="#2DA771"/>
<stop offset="0.5" stop-color="#4FB26F"/>
<stop offset="0.82" stop-color="#61B668"/>
<stop offset="1" stop-color="#64B664"/>
</linearGradient>
</defs>
</svg>
