<svg width="183" height="56" viewBox="0 0 183 56" fill="none" xmlns="http://www.w3.org/2000/svg">
<rect width="183" height="56" rx="8" fill="black"/>
<path d="M70.7104 35.8596H65.0472L63.6739 39.6398H61.1849L66.7235 25.5186H69.0737L74.7369 39.6398H72.1319L70.7104 35.8596ZM65.7664 33.9341H69.9855L68.4734 29.8906C68.2695 29.3243 68.0628 28.7155 67.8618 28.0387C67.6806 28.639 67.4795 29.245 67.2672 29.8708L65.7664 33.9341Z" fill="white"/>
<path d="M75.7365 31.6969C75.7365 30.9182 75.7082 30.0603 75.6572 29.1202H77.9225C78.0078 29.5618 78.0664 30.0081 78.098 30.4567C78.4922 29.984 78.9841 29.6023 79.5399 29.3379C80.0957 29.0734 80.7021 28.9325 81.3176 28.9248C82.0396 28.9122 82.7489 29.1158 83.3544 29.5093C83.9599 29.9029 84.4339 30.4685 84.7155 31.1334C85.1122 32.0461 85.3008 33.0356 85.2677 34.0302C85.2918 35.1158 85.0711 36.193 84.6221 37.1817C84.2482 38.0031 83.6367 38.6935 82.8665 39.1639C82.0732 39.6228 81.1691 39.855 80.2529 39.835C79.5326 39.8348 78.8175 39.7132 78.1377 39.4753V43.8332L75.7308 44.0371L75.7365 31.6969ZM82.0651 37.077C82.555 36.4314 82.8042 35.4658 82.8042 34.1774C82.8042 33.0051 82.6003 32.1443 82.1897 31.6035C82.0076 31.3499 81.7653 31.1456 81.4846 31.0089C81.2042 30.8703 80.8941 30.8022 80.5814 30.8106C80.1311 30.8045 79.6871 30.9157 79.293 31.1334C78.8734 31.3696 78.4916 31.6674 78.1603 32.0169V37.6518C78.4306 37.7812 78.716 37.8763 79.0098 37.935C79.3205 38.0029 79.6376 38.0371 79.9556 38.0369C80.3599 38.0624 80.7643 37.9885 81.1335 37.8217C81.5003 37.6482 81.8198 37.3888 82.0651 37.0657V37.077Z" fill="white"/>
<path d="M86.7174 31.6969C86.7174 30.9192 86.6919 30.0603 86.641 29.1202H88.9063C88.9943 29.5613 89.053 30.0078 89.0818 30.4567C90.0257 29.4335 91.0998 28.9229 92.3042 28.9248C93.0262 28.9122 93.7355 29.1158 94.341 29.5093C94.9465 29.9029 95.4205 30.4685 95.7021 31.1334C96.0988 32.0461 96.2874 33.0356 96.2543 34.0302C96.2761 35.1159 96.0545 36.1928 95.6058 37.1817C95.2306 38.004 94.617 38.6945 93.8446 39.1639C93.0522 39.6225 92.1491 39.8546 91.2338 39.835C90.5135 39.835 89.7984 39.7135 89.1186 39.4753V43.8332L86.7089 44.0371L86.7174 31.6969ZM93.0574 37.077C93.5482 36.4182 93.7936 35.4516 93.7936 34.1774C93.7936 33.0051 93.5897 32.1443 93.1848 31.6035C93.0004 31.3509 92.7574 31.1468 92.4768 31.0087C92.1962 30.8707 91.8863 30.8027 91.5736 30.8106C91.1234 30.8045 90.6794 30.9157 90.2852 31.1334C89.8656 31.3696 89.4838 31.6674 89.1526 32.0169V37.6518C89.4235 37.7795 89.7087 37.8746 90.0021 37.935C90.3128 38.0029 90.6298 38.0371 90.9478 38.0369C91.3519 38.0621 91.7559 37.9883 92.125 37.822C92.4941 37.6557 92.8171 37.4019 93.0659 37.0826L93.0574 37.077Z" fill="white"/>
<path d="M100.666 38.9742C99.6374 38.4096 98.802 37.5494 98.2675 36.505C97.6832 35.3244 97.3964 34.0189 97.4322 32.7022C97.39 31.2935 97.7233 29.8989 98.3978 28.6615C99.0056 27.5877 99.9194 26.7193 101.023 26.1668C102.182 25.598 103.46 25.3117 104.752 25.3315C106.271 25.3313 107.771 25.675 109.138 26.3367L108.512 28.1886C107.374 27.6127 106.121 27.3001 104.845 27.274C103.945 27.258 103.056 27.4797 102.269 27.9168C101.523 28.3473 100.923 28.9913 100.547 29.7658C100.117 30.6854 99.9071 31.6929 99.9353 32.7078C99.9193 33.6226 100.079 34.5319 100.405 35.3865C100.702 36.1434 101.224 36.7909 101.9 37.2412C102.67 37.7224 103.567 37.9602 104.474 37.9236C104.949 37.9244 105.423 37.8846 105.89 37.8047C106.339 37.7346 106.78 37.6208 107.207 37.4649V34.5908H103.931V32.722H109.537V38.6684C108.722 39.0489 107.867 39.3394 106.989 39.5348C106.121 39.736 105.232 39.8376 104.341 39.8378C103.062 39.8689 101.797 39.5715 100.666 38.9742Z" fill="white"/>
<path d="M118.092 39.6394C118.001 39.18 117.945 38.7143 117.924 38.2463C117.524 38.7165 117.033 39.1016 116.48 39.3789C115.857 39.6938 115.166 39.8532 114.467 39.8433C113.895 39.8495 113.329 39.7266 112.811 39.4837C112.318 39.2539 111.907 38.8809 111.63 38.4134C111.322 37.8826 111.169 37.2765 111.188 36.6634C111.17 36.1987 111.26 35.7361 111.452 35.3124C111.643 34.8887 111.931 34.5155 112.292 34.2226C113.029 33.6147 114.256 33.3118 115.974 33.3136C116.612 33.3127 117.25 33.3571 117.882 33.4467V33.2429C117.882 32.3141 117.685 31.659 117.29 31.2777C116.82 30.8735 116.21 30.6701 115.591 30.7114C115.035 30.7178 114.481 30.793 113.943 30.9351C113.411 31.0648 112.891 31.244 112.392 31.4703L112.012 29.7175C112.56 29.4854 113.129 29.3062 113.711 29.1823C114.441 29.0155 115.188 28.9328 115.937 28.936C116.729 28.9134 117.518 29.0551 118.253 29.3522C118.899 29.6369 119.427 30.1374 119.745 30.768C120.138 31.6174 120.323 32.5484 120.283 33.4835V37.6686C120.283 38.0991 120.309 38.7598 120.36 39.6508L118.092 39.6394ZM116.65 37.7083C117.114 37.4929 117.531 37.1878 117.876 36.8107V34.8795C117.345 34.8195 116.811 34.7873 116.277 34.7832C115.28 34.7832 114.592 34.9446 114.212 35.2675C114.026 35.4201 113.878 35.614 113.779 35.8338C113.68 36.0562 113.632 36.2982 113.64 36.5417C113.623 36.753 113.652 36.9656 113.725 37.1646C113.797 37.3635 113.91 37.545 114.057 37.697C114.372 37.9624 114.777 38.0971 115.189 38.0736C115.697 38.0626 116.197 37.9378 116.65 37.7083Z" fill="white"/>
<path d="M122.124 37.1165V24.6886L124.519 24.4932V36.6889C124.485 37.0274 124.566 37.3676 124.749 37.6545C124.84 37.7544 124.953 37.8311 125.08 37.8782C125.206 37.9268 125.342 37.9462 125.476 37.9348C125.694 37.9236 125.91 37.8866 126.119 37.8244L126.402 39.5489C126.133 39.6505 125.854 39.7245 125.57 39.7697C125.262 39.8239 124.951 39.8513 124.638 39.8518C122.962 39.8443 122.124 38.9325 122.124 37.1165Z" fill="white"/>
<path d="M128.115 37.1165V24.6886L130.514 24.4932V36.6889C130.481 37.0274 130.561 37.3671 130.743 37.6545C130.835 37.7535 130.948 37.83 131.074 37.8782C131.201 37.9268 131.336 37.9462 131.471 37.9348C131.689 37.9239 131.905 37.8868 132.114 37.8244L132.397 39.5489C132.129 39.6508 131.851 39.7249 131.567 39.7697C131.259 39.824 130.946 39.8515 130.633 39.8518C128.956 39.8443 128.117 38.9325 128.115 37.1165Z" fill="white"/>
<path d="M142.248 34.687H135.367C135.477 36.8918 136.526 37.9943 138.516 37.9943C139.027 37.9915 139.536 37.9317 140.034 37.8159C140.541 37.6969 141.037 37.5349 141.517 37.3317L142.044 38.9797C140.805 39.5615 139.449 39.852 138.08 39.8292C137.096 39.8575 136.122 39.6353 135.248 39.1836C134.492 38.7757 133.885 38.1381 133.515 37.3628C133.109 36.4643 132.912 35.4857 132.938 34.5001C132.911 33.4655 133.122 32.4387 133.555 31.4986C133.92 30.7025 134.511 30.0311 135.254 29.5674C136.02 29.1151 136.896 28.8847 137.785 28.902C138.668 28.8708 139.537 29.1153 140.274 29.6014C140.939 30.0621 141.454 30.708 141.755 31.4589C142.086 32.2771 142.251 33.1531 142.239 34.0357L142.248 34.687ZM139.901 33.1579C139.905 32.4748 139.678 31.8103 139.258 31.2721C139.068 31.0603 138.834 30.893 138.573 30.7822C138.312 30.6696 138.029 30.6174 137.746 30.6293C137.46 30.6223 137.176 30.6764 136.913 30.7879C136.651 30.8989 136.414 31.0639 136.219 31.2721C135.767 31.8017 135.489 32.4584 135.424 33.1522L139.901 33.1579Z" fill="white"/>
<path d="M144.069 31.7651C144.069 31.1988 144.04 30.3068 143.989 29.1261H146.255C146.294 29.4092 146.328 29.7688 146.368 30.1709C146.408 30.573 146.425 30.9071 146.439 31.162C146.682 30.7524 146.957 30.3632 147.263 29.9982C147.527 29.6851 147.848 29.4239 148.208 29.228C148.587 29.0236 149.013 28.9202 149.443 28.9279C149.769 28.9206 150.094 28.9606 150.409 29.0468L150.106 31.1337C149.729 31.0262 149.333 30.9982 148.945 31.0516C148.556 31.1073 148.183 31.2453 147.852 31.4565C147.32 31.8503 146.856 32.3285 146.478 32.8723V39.6341H144.08L144.069 31.7651Z" fill="white"/>
<path d="M151.737 43.9463C151.443 43.8979 151.153 43.8279 150.87 43.7367L151.309 41.9812C151.51 42.035 151.717 42.0803 151.924 42.1142C152.155 42.1548 152.39 42.1756 152.626 42.1765C153.698 42.1765 154.497 41.4913 155.021 40.1208L155.18 39.73L151.298 29.12H153.875L155.857 35.0466C156.108 35.809 156.313 36.5864 156.468 37.3741C156.652 36.6153 156.865 35.8536 157.111 35.0947L159.076 29.12H161.5L157.618 39.7782C157.325 40.6364 156.928 41.4553 156.434 42.2162C156.059 42.79 155.546 43.261 154.942 43.5867C154.294 43.9037 153.579 44.0591 152.858 44.0397C152.482 44.0393 152.107 44.0081 151.737 43.9463Z" fill="white"/>
<path d="M61.1821 12.0713H65.4634L65.3445 13.1104H62.4308V15.1152H65.1774V16.095H62.4308V18.3178H65.5002L65.3926 19.3711H61.1821V12.0713Z" fill="white"/>
<path d="M68.4225 15.6391L66.1572 12.0713H67.5871L69.119 14.6933L70.7302 12.0713H72.1177L69.8524 15.5938L72.2904 19.357H70.8406L69.1049 16.4914L67.338 19.357H65.9505L68.4225 15.6391Z" fill="white"/>
<path d="M73.2362 12.0713H75.2013C76.1216 12.0713 76.8267 12.261 77.3194 12.6376C77.5634 12.8304 77.7577 13.079 77.8857 13.3625C78.0143 13.6464 78.0717 13.9574 78.0527 14.2686C78.0667 14.7121 77.9558 15.1507 77.7328 15.5343C77.5131 15.8943 77.1933 16.1826 76.8125 16.364C76.3908 16.5631 75.928 16.6601 75.4618 16.6471C75.1376 16.644 74.8144 16.6108 74.4963 16.548V19.3541H73.2362V12.0713ZM76.3934 15.3248C76.5295 15.1917 76.6357 15.0313 76.705 14.8541C76.7743 14.6769 76.8052 14.4869 76.7955 14.2969C76.8105 14.1152 76.7813 13.9326 76.7106 13.7645C76.6387 13.5959 76.5269 13.4472 76.3849 13.3313C76.0226 13.1115 75.6017 13.0078 75.1787 13.034H74.4963V15.6108C74.7357 15.6538 74.978 15.6784 75.2211 15.6844C75.643 15.7146 76.0611 15.5864 76.3934 15.3248Z" fill="white"/>
<path d="M79.2958 12.0713H80.553V18.281H83.5659L83.4583 19.357H79.2958V12.0713Z" fill="white"/>
<path d="M85.4772 18.9974C84.9501 18.6995 84.5241 18.2508 84.2539 17.709C83.9623 17.1078 83.8176 16.4459 83.832 15.7778C83.818 15.0791 83.9734 14.3873 84.2851 13.7617C84.5696 13.1977 85.019 12.7336 85.5735 12.4309C86.192 12.1048 86.8852 11.9466 87.5839 11.9722C88.245 11.9546 88.8992 12.1108 89.4811 12.4252C90.0046 12.7249 90.4274 13.1733 90.6958 13.7136C90.9821 14.3093 91.1238 14.9642 91.1092 15.6249C91.1262 16.3303 90.9706 17.0292 90.6562 17.6608C90.3688 18.2235 89.9202 18.6878 89.3678 18.9945C88.7589 19.3201 88.0759 19.482 87.3857 19.4646C86.7193 19.4809 86.0607 19.3196 85.4772 18.9974ZM88.7364 18.1054C89.0918 17.8707 89.3682 17.5342 89.5292 17.1398C89.7096 16.69 89.7982 16.2086 89.7897 15.724C89.7979 15.2466 89.7192 14.7717 89.5575 14.3224C89.4129 13.934 89.1556 13.5978 88.8185 13.3568C88.4266 13.1162 87.9758 12.9888 87.5159 12.9888C87.0561 12.9888 86.6052 13.1162 86.2134 13.3568C85.8571 13.6031 85.5798 13.9473 85.4149 14.3479C85.2317 14.7803 85.1401 15.246 85.1459 15.7155C85.1404 16.1991 85.2259 16.6794 85.3979 17.1313C85.5521 17.5444 85.834 17.8976 86.2027 18.1395C86.5714 18.3814 87.0076 18.4994 87.448 18.4763C87.9053 18.4873 88.3549 18.3579 88.7364 18.1054Z" fill="white"/>
<path d="M92.5109 12.0712H94.7903C95.4579 12.0253 96.122 12.2015 96.679 12.5724C96.8933 12.7399 97.0642 12.9565 97.1774 13.2038C97.288 13.4519 97.3384 13.7226 97.3246 13.9939C97.3331 14.3477 97.2533 14.698 97.0924 15.0132C96.9542 15.288 96.7615 15.5318 96.5261 15.7296C96.3124 15.9017 96.0724 16.0385 95.8154 16.1346L98.0806 19.3569H96.6167L94.7195 16.4574H93.7964V19.3569H92.5279L92.5109 12.0712ZM94.4732 15.5286C94.7523 15.535 95.0289 15.4748 95.2802 15.353C95.5067 15.2437 95.698 15.073 95.8323 14.8603C95.966 14.6333 96.0337 14.3734 96.0277 14.11C96.0419 13.9579 96.0165 13.8048 95.9541 13.6654C95.8923 13.5231 95.7947 13.3993 95.6709 13.3058C95.3687 13.118 95.0151 13.0298 94.6601 13.0538H93.7511V15.5286H94.4732Z" fill="white"/>
<path d="M99.0462 12.0713H103.339L103.217 13.1104H100.318V15.1152H103.039V16.095H100.292V18.3178H103.362L103.268 19.3711H99.0462V12.0713Z" fill="white"/>
<path d="M108.008 12.0713H109.263V19.357H108.008V12.0713Z" fill="white"/>
<path d="M112.595 13.1218H110.33L110.441 12.0713H116.104L115.993 13.1218H113.844V19.3513H112.595V13.1218Z" fill="white"/>
<path d="M121.569 18.9971C121.042 18.6999 120.617 18.251 120.348 17.7087C120.054 17.1082 119.909 16.446 119.924 15.7776C119.91 15.0788 120.065 14.3871 120.377 13.7615C120.662 13.1986 121.11 12.7348 121.662 12.4306C122.276 12.103 122.965 11.9411 123.661 11.9606C124.33 11.9411 124.992 12.1014 125.578 12.425C126.104 12.7223 126.527 13.1714 126.793 13.7133C127.081 14.3086 127.225 14.9635 127.212 15.6247C127.228 16.3306 127.071 17.0298 126.753 17.6606C126.467 18.2239 126.018 18.6884 125.465 18.9943C124.856 19.3198 124.173 19.4818 123.483 19.4643C122.814 19.4834 122.153 19.322 121.569 18.9971ZM124.831 18.1051C125.185 17.8695 125.46 17.5332 125.621 17.1396C125.801 16.6897 125.89 16.2084 125.881 15.7238C125.89 15.2463 125.811 14.7714 125.649 14.3221C125.506 13.934 125.249 13.5977 124.913 13.3566C124.521 13.116 124.069 12.9886 123.609 12.9886C123.149 12.9886 122.697 13.116 122.305 13.3566C121.949 13.6029 121.671 13.9471 121.506 14.3476C121.318 14.779 121.222 15.2447 121.223 15.7153C121.216 16.199 121.302 16.6795 121.475 17.1311C121.63 17.5456 121.913 17.8998 122.284 18.1418C122.654 18.3838 123.092 18.501 123.534 18.4761C123.994 18.4883 124.447 18.3588 124.831 18.1051Z" fill="white"/>
<path d="M128.605 12.0713H130.047L133.651 17.7175C133.62 17.1795 133.606 16.6868 133.606 16.2337V12.0713H134.77V19.357H133.374L129.715 13.6201C129.752 14.2657 129.769 14.8491 129.769 15.3531V19.357H128.605V12.0713Z" fill="white"/>
<path fill-rule="evenodd" clip-rule="evenodd" d="M43.4732 12.1105H30.1081C23.8049 12.1105 21.5 14.4154 21.5 20.7186V34.0922C21.5 40.3925 23.8049 42.7003 30.1081 42.7003H43.4732C49.7735 42.7003 52.0813 40.3925 52.0813 34.0922V20.7186C52.0898 14.4154 49.782 12.1105 43.4732 12.1105Z" fill="#C91430"/>
<path d="M27.5568 27.4044H28.3695V31.4083H27.5568V29.7801H25.7248V31.4083H24.9121V27.4044H25.7248V29.0156H27.5568V27.4044ZM32.1298 29.6867C32.1298 30.3294 31.807 30.6834 31.2209 30.6834C30.6348 30.6834 30.3063 30.3294 30.3063 29.6498V27.3846H29.4936V29.6867C29.4936 30.8193 30.1194 31.4536 31.1926 31.4536C32.2658 31.4536 32.9255 30.808 32.9255 29.6498V27.3987H32.1298V29.6867ZM41.5053 30.1454L40.5963 27.3959H39.9309L39.0276 30.151L38.1442 27.3959H37.2947L38.6878 31.3998H39.3617L40.2679 28.7721L41.174 31.3998H41.8536L43.2495 27.3959H42.4001L41.5053 30.1454ZM44.6852 29.6867H46.1633V28.9618H44.6852V28.1463H46.8315V27.4101H43.8866V31.3856H46.9023V30.6777H44.6795L44.6852 29.6867ZM47.8735 31.3856H48.6749V27.3931H47.8735V31.3856ZM34.5424 30.5588L34.1799 31.3885H33.3531L35.1002 27.3931H35.8166L37.558 31.3998H36.7085L36.3631 30.573L34.5424 30.5588ZM34.8453 29.8367H36.0658L35.4541 28.4068L34.8453 29.8367Z" fill="white"/>
<path d="M36.7935 22.3242C35.4417 22.3242 34.1453 21.7872 33.1895 20.8314C32.2336 19.8755 31.6966 18.5791 31.6966 17.2273H32.413C32.442 18.3679 32.9155 19.4521 33.7325 20.2486C34.5496 21.0451 35.6454 21.4908 36.7864 21.4908C37.9274 21.4908 39.0233 21.0451 39.8403 20.2486C40.6573 19.4521 41.1308 18.3679 41.1598 17.2273H41.8762C41.8762 18.5791 41.3392 19.8755 40.3834 20.8314C39.4275 21.7872 38.1311 22.3242 36.7793 22.3242H36.7935Z" fill="white"/>
</svg>
