<svg width="183" height="56" viewBox="0 0 183 56" fill="none" xmlns="http://www.w3.org/2000/svg">
<rect width="183" height="56" rx="8" fill="black"/>
<path d="M90.6013 10.3789H91.8477V19.1848H90.6013V10.3789Z" fill="white"/>
<path d="M42.3139 27.0683C42.3293 25.8937 42.6415 24.7418 43.2214 23.7202C43.8013 22.6986 44.6301 21.8399 45.6307 21.2247C44.9936 20.3188 44.1548 19.5733 43.1803 19.0465C42.2059 18.5197 41.1224 18.2271 40.0154 18.1905C38.5699 18.0382 37.1525 18.6009 35.9937 19.0611C35.2579 19.3531 34.6264 19.6038 34.1582 19.6038C33.637 19.6038 32.9934 19.3445 32.2683 19.0518C31.3167 18.6674 30.2246 18.2264 29.0843 18.2417C27.7912 18.287 26.5319 18.6667 25.429 19.3438C24.3262 20.0202 23.4174 20.9713 22.7913 22.1033C20.067 26.8129 22.1102 33.7359 24.7051 37.5429C26.0093 39.4092 27.5349 41.4896 29.527 41.4185C30.4593 41.3846 31.1059 41.1099 31.7716 40.8265C32.5284 40.5046 33.3098 40.1721 34.5634 40.1721C35.7694 40.1721 36.5313 40.4986 37.2602 40.8106C37.9556 41.1085 38.621 41.3939 39.6136 41.3706C41.7078 41.3367 43.0189 39.4977 44.2856 37.6247C45.2225 36.2972 45.9431 34.8293 46.4208 33.2763C45.2017 32.7602 44.1619 31.8956 43.4314 30.7915C42.7009 29.6874 42.3123 28.3925 42.3139 27.0683Z" fill="white"/>
<path d="M38.4728 15.6877C39.6132 14.317 40.175 12.5558 40.0392 10.7773C38.2955 10.9602 36.6847 11.7929 35.5272 13.1098C34.3861 14.4114 33.8081 16.1127 33.9199 17.84C34.7918 17.8473 35.6542 17.6578 36.4426 17.2846C37.231 16.9122 37.9249 16.3661 38.4728 15.6877Z" fill="white"/>
<path fill-rule="evenodd" clip-rule="evenodd" d="M66.9787 36.6883H60.3281L58.7276 41.4078H55.9012L62.2078 23.939H65.1364L71.443 41.4078H68.5757L66.9787 36.6883ZM61.0091 34.5088H66.2874L63.6857 26.8468H63.6142L61.0091 34.5088Z" fill="white"/>
<path fill-rule="evenodd" clip-rule="evenodd" d="M85.0643 35.0435C85.0643 39.0042 82.9462 41.5442 79.752 41.5442C78.942 41.5881 78.1361 41.4025 77.427 41.0081C76.718 40.6144 76.1346 40.0284 75.7439 39.3174H75.6826V45.6239H73.0674V28.6725H75.5975V30.7902H75.652C76.0604 30.0832 76.653 29.5005 77.3667 29.1041C78.0804 28.7077 78.8884 28.5129 79.7043 28.5395C82.936 28.5395 85.0643 31.0935 85.0643 35.0435ZM82.3775 35.0435C82.3775 32.4656 81.046 30.7702 79.013 30.7702C76.9801 30.7702 75.6724 32.5035 75.6724 35.0435C75.6724 37.5842 77.0141 39.3307 79.013 39.3307C81.0119 39.3307 82.3775 37.642 82.3775 35.0435Z" fill="white"/>
<path fill-rule="evenodd" clip-rule="evenodd" d="M99.084 35.0435C99.084 39.0042 96.9659 41.5442 93.7683 41.5442C92.9584 41.5874 92.1528 41.4012 91.4439 41.0074C90.735 40.613 90.1514 40.0278 89.7602 39.3174H89.6989V45.6239H87.087V28.6725H89.6138V30.7902H89.6615C90.0707 30.0832 90.664 29.5005 91.3782 29.1041C92.0924 28.7077 92.9008 28.5129 93.7172 28.5395C96.9522 28.5395 99.084 31.0935 99.084 35.0435ZM96.3972 35.0435C96.3972 32.4656 95.0623 30.7702 93.0293 30.7702C90.9964 30.7702 89.6887 32.5035 89.6887 35.0435C89.6887 37.5842 91.0338 39.3307 93.0293 39.3307C95.0248 39.3307 96.3972 37.642 96.3972 35.0435Z" fill="white"/>
<path d="M108.343 36.542C108.537 38.2752 110.219 39.4125 112.521 39.4125C114.725 39.4125 116.308 38.2752 116.308 36.7122C116.308 35.3501 115.355 34.5427 113.09 33.988L110.825 33.4433C107.618 32.6664 106.126 31.1686 106.126 28.7337C106.126 25.7201 108.755 23.6497 112.484 23.6497C116.213 23.6497 118.705 25.7201 118.791 28.7337H116.151C115.995 26.9898 114.554 25.9376 112.446 25.9376C110.339 25.9376 108.901 27.0038 108.901 28.5528C108.901 29.7859 109.821 30.5148 112.072 31.0695L113.996 31.5431C117.582 32.3911 119.07 33.831 119.07 36.385C119.07 39.6546 116.468 41.7011 112.327 41.7011C108.452 41.7011 105.837 39.7019 105.666 36.542H108.343Z" fill="white"/>
<path d="M124.712 25.645V28.6585H127.134V30.729H124.712V37.7677C124.712 38.8578 125.196 39.3686 126.262 39.3686C126.548 39.3686 126.837 39.3414 127.123 39.3068V41.35C126.644 41.4384 126.157 41.4797 125.669 41.473C123.091 41.473 122.083 40.502 122.083 38.0331V30.743H120.234V28.6725H122.083V25.6583L124.712 25.645Z" fill="white"/>
<path fill-rule="evenodd" clip-rule="evenodd" d="M128.54 35.0435C128.54 31.0389 130.9 28.5189 134.581 28.5189C138.262 28.5189 140.622 31.0389 140.622 35.0435C140.622 39.0481 138.286 41.5715 134.581 41.5715C130.876 41.5715 128.54 39.0587 128.54 35.0435ZM137.969 35.0435C137.969 32.2953 136.709 30.6744 134.591 30.6744C132.473 30.6744 131.213 32.3093 131.213 35.0435C131.213 37.7777 132.473 39.4159 134.591 39.4159C136.709 39.4159 137.969 37.8017 137.969 35.0435Z" fill="white"/>
<path d="M142.788 28.6758H145.28V30.8447H145.342C145.51 30.1676 145.907 29.5684 146.465 29.1494C147.023 28.7304 147.709 28.5162 148.407 28.5428C148.479 28.5428 148.552 28.5441 148.625 28.5481C148.756 28.5548 148.887 28.5681 149.017 28.588C149.113 28.6027 149.208 28.6206 149.302 28.6419V31.0868L149.192 31.0555L149.148 31.0436C149.043 31.0163 148.936 30.9937 148.829 30.9757C148.598 30.9372 148.363 30.9205 148.127 30.9265C147.748 30.9119 147.369 30.9797 147.018 31.1247C146.667 31.2697 146.351 31.4892 146.092 31.7672C145.834 32.0459 145.638 32.3764 145.519 32.7376C145.4 33.0987 145.361 33.4812 145.403 33.8583V41.4118H142.788V28.6758Z" fill="white"/>
<path fill-rule="evenodd" clip-rule="evenodd" d="M161.354 37.6726C161.013 39.9845 158.752 41.5715 155.868 41.5715C152.166 41.5715 149.864 39.0893 149.864 35.1014C149.864 31.1141 152.176 28.5155 155.759 28.5155C159.283 28.5155 161.5 30.9365 161.5 34.7981V35.694H152.493V35.8509C152.45 36.3205 152.508 36.7934 152.662 37.239C152.816 37.6846 153.064 38.0923 153.388 38.4348C153.712 38.7774 154.105 39.0467 154.542 39.225C154.978 39.4039 155.447 39.4877 155.919 39.4704C156.537 39.5289 157.157 39.3859 157.687 39.0634C158.217 38.7401 158.629 38.2553 158.861 37.6793L161.354 37.6726ZM152.517 33.8689H158.885C158.908 33.4473 158.844 33.0256 158.696 32.6298C158.629 32.4509 158.546 32.2787 158.447 32.1157C158.328 31.9188 158.188 31.7359 158.027 31.5703C157.734 31.2671 157.381 31.0276 156.99 30.8667C156.6 30.7064 156.181 30.6279 155.759 30.6372C155.333 30.6345 154.911 30.7163 154.517 30.8773C154.123 31.0389 153.765 31.2764 153.464 31.577C153.162 31.8776 152.924 32.2348 152.761 32.6278C152.598 33.0216 152.515 33.4433 152.517 33.8689Z" fill="white"/>
<path fill-rule="evenodd" clip-rule="evenodd" d="M60.6686 10.7906C61.2169 10.75 61.7673 10.8312 62.2804 11.0287C62.7934 11.2262 63.2563 11.5355 63.6354 11.9332C64.0146 12.3316 64.3008 12.8085 64.4731 13.3306C64.6455 13.8527 64.6999 14.4068 64.6324 14.9521C64.6324 17.6325 63.1817 19.1749 60.6822 19.1749H57.6515V10.7906H60.6686ZM58.9659 17.9963H60.5494C61.3298 17.9704 62.0695 17.6418 62.6123 17.0805C63.1551 16.5191 63.4585 15.7689 63.4585 14.9881C63.4585 14.2072 63.1551 13.457 62.6123 12.8956C62.0695 12.3343 61.3298 12.0057 60.5494 11.9791H58.9659V17.9963Z" fill="white"/>
<path fill-rule="evenodd" clip-rule="evenodd" d="M66.1171 16.015C66.1801 15.3645 66.4532 14.7533 66.895 14.2724C67.3368 13.7915 67.9233 13.4676 68.5656 13.3499C69.2079 13.2322 69.871 13.3273 70.4546 13.6206C71.0381 13.9133 71.5102 14.3888 71.7994 14.9741C72.0886 15.5594 72.1792 16.2231 72.0573 16.865C71.9355 17.5061 71.6079 18.0907 71.1242 18.529C70.6405 18.968 70.027 19.2367 69.3766 19.2959C68.7263 19.3544 68.0745 19.1995 67.5201 18.8549C67.0448 18.559 66.6617 18.1366 66.4137 17.6345C66.1659 17.133 66.0631 16.5717 66.1171 16.015ZM70.8062 16.015C70.8062 14.6528 70.1898 13.8388 69.1036 13.8388C68.0173 13.8388 67.4009 14.6422 67.4009 16.015C67.4009 17.3871 68.0139 18.1972 69.1036 18.1972C70.1933 18.1972 70.7926 17.3937 70.7926 16.015H70.8062Z" fill="white"/>
<path d="M80.021 19.1848H78.7168L77.4091 14.5198H77.307L76.0062 19.1848H74.7223L72.9754 12.8511H74.2422L75.383 17.6764H75.4783L76.7792 12.8444H77.9778L79.2821 17.6764H79.3978L80.525 12.8444H81.7781L80.021 19.1848Z" fill="white"/>
<path d="M84.4309 12.8511H83.2288L83.2322 19.1848H84.4819V15.4802C84.4602 15.2721 84.4836 15.0612 84.5506 14.863C84.6176 14.6648 84.7265 14.4826 84.87 14.3303C84.9539 14.2411 85.0484 14.1633 85.1512 14.0981C85.2242 14.0516 85.3015 14.0117 85.3821 13.9791C85.576 13.8999 85.7847 13.864 85.9939 13.8727C86.9133 13.8727 87.356 14.3768 87.356 15.3984V19.1715H88.6058V15.0852C88.6219 14.9841 88.6303 14.8823 88.6311 14.7812C88.6317 14.7054 88.6281 14.6296 88.6202 14.5544C88.6127 14.4812 88.6012 14.4088 88.5859 14.3369C88.5739 14.2804 88.5593 14.2245 88.5425 14.1693C88.4522 13.8727 88.2956 13.6007 88.0847 13.3739C87.8737 13.1471 87.6139 12.9708 87.3248 12.8591C87.2683 12.8371 87.2109 12.8178 87.1529 12.8012C87.0994 12.7859 87.0453 12.7726 86.9908 12.762C86.8024 12.7241 86.6089 12.7127 86.4162 12.7287C86.0231 12.6968 85.6298 12.7879 85.291 12.9901C84.9523 13.1923 84.685 13.4949 84.5263 13.8561H84.4309V12.8511Z" fill="white"/>
<path fill-rule="evenodd" clip-rule="evenodd" d="M94.3657 14.2751C93.9242 14.7553 93.6511 15.3658 93.5878 16.015C93.5342 16.5717 93.6371 17.133 93.885 17.6345C94.1328 18.136 94.5158 18.559 94.9908 18.8549C95.5447 19.1988 96.1956 19.3531 96.845 19.2939C97.4944 19.2347 98.1069 18.966 98.5898 18.5277C99.0726 18.0894 99.3996 17.5061 99.5212 16.8656C99.6427 16.2251 99.5522 15.562 99.2634 14.9774C98.9746 14.3928 98.5032 13.9179 97.9205 13.6253C97.3379 13.3326 96.6758 13.2375 96.0343 13.3552C95.3929 13.4723 94.8071 13.7955 94.3657 14.2751ZM96.5742 13.8388C97.6605 13.8388 98.2769 14.6528 98.2769 16.015C98.2769 17.3937 97.6639 18.1978 96.5742 18.1978C95.4845 18.1978 94.8716 17.3871 94.8716 16.015C94.8716 14.6422 95.4879 13.8388 96.5742 13.8388Z" fill="white"/>
<path fill-rule="evenodd" clip-rule="evenodd" d="M103.235 15.5042C101.726 15.596 100.879 16.2531 100.879 17.3937C100.88 17.6611 100.936 17.9258 101.046 18.1692C101.155 18.4133 101.314 18.6321 101.513 18.8104C101.712 18.9893 101.946 19.1243 102.201 19.2068C102.347 19.2547 102.498 19.2846 102.65 19.2959C102.763 19.3046 102.877 19.3026 102.99 19.2906C103.367 19.3079 103.741 19.2247 104.076 19.0505C104.41 18.8756 104.692 18.6155 104.893 18.2963H104.992V19.1848H106.194V14.857C106.194 13.5188 105.299 12.7287 103.712 12.7287C102.275 12.7287 101.25 13.4264 101.124 14.5132H102.319C102.459 14.0669 102.942 13.8115 103.64 13.8115C104.495 13.8115 104.938 14.176 104.938 14.857V15.4051L103.235 15.5042ZM104.965 16.3143V16.8424C104.951 17.0419 104.897 17.2368 104.806 17.4157C104.716 17.5939 104.59 17.7529 104.437 17.8819C104.284 18.0109 104.107 18.108 103.915 18.1679C103.724 18.2271 103.523 18.2477 103.324 18.2284C102.643 18.2284 102.149 17.8979 102.149 17.3259C102.149 16.7539 102.544 16.4712 103.416 16.4134L104.965 16.3143Z" fill="white"/>
<path fill-rule="evenodd" clip-rule="evenodd" d="M110.482 12.7453C108.874 12.7453 107.853 14.0124 107.853 16.015H107.839C107.839 18.0169 108.857 19.2906 110.482 19.2906C110.883 19.3059 111.28 19.2108 111.631 19.0152C111.981 18.8204 112.272 18.5324 112.47 18.1839H112.569V19.1848H113.768V10.3789H112.515V13.8561H112.423C112.238 13.5055 111.957 13.2156 111.613 13.0187C111.27 12.8225 110.877 12.7274 110.482 12.7453ZM110.846 18.1666C109.777 18.1666 109.143 17.3598 109.143 16.015C109.143 14.6834 109.8 13.8694 110.846 13.8694C111.891 13.8694 112.549 14.6967 112.549 16.0216C112.549 17.3465 111.915 18.1666 110.846 18.1666Z" fill="white"/>
<path fill-rule="evenodd" clip-rule="evenodd" d="M119.718 14.2751C119.277 14.7553 119.004 15.3658 118.94 16.015H118.927C118.874 16.573 118.979 17.135 119.23 17.6371C119.48 18.1386 119.866 18.5603 120.343 18.8549C120.897 19.1988 121.548 19.3531 122.198 19.2939C122.847 19.2347 123.459 18.966 123.942 18.5277C124.425 18.0894 124.752 17.5061 124.874 16.8656C124.995 16.2251 124.905 15.562 124.616 14.9774C124.327 14.3928 123.856 13.9179 123.273 13.6253C122.69 13.3326 122.028 13.2375 121.387 13.3552C120.745 13.4723 120.16 13.7955 119.718 14.2751ZM121.923 13.8388C123.01 13.8388 123.626 14.6528 123.626 16.015H123.612C123.612 17.3937 123.016 18.1978 121.923 18.1978C120.83 18.1978 120.221 17.3871 120.221 16.015C120.221 14.6422 120.837 13.8388 121.923 13.8388Z" fill="white"/>
<path d="M127.794 12.8511H126.589L126.592 19.1848H127.845V15.4802C127.822 15.2721 127.845 15.0612 127.911 14.8623C127.978 14.6635 128.086 14.4819 128.23 14.3289C128.374 14.1766 128.55 14.0569 128.744 13.9784C128.859 13.9319 128.979 13.9006 129.101 13.884C129.185 13.8727 129.271 13.8687 129.357 13.8727C130.277 13.8727 130.719 14.3768 130.719 15.3984V19.1715H131.969V15.0852C131.996 14.9189 132.001 14.7499 131.986 14.5837C131.974 14.4433 131.947 14.3043 131.906 14.1686C131.815 13.8713 131.658 13.5993 131.447 13.3725C131.236 13.1451 130.975 12.9695 130.686 12.8577C130.396 12.746 130.085 12.7021 129.776 12.7287C129.383 12.6974 128.99 12.7892 128.652 12.9914C128.482 13.0925 128.33 13.2189 128.201 13.3659C128.072 13.5115 127.966 13.6765 127.886 13.8561H127.794V12.8511Z" fill="white"/>
<path d="M139.035 12.8784V11.2748H137.782V12.875H136.76V13.9305H137.782V17.5128C137.782 18.7286 138.337 19.2154 139.726 19.2154C139.955 19.2141 140.182 19.1935 140.407 19.1542V18.1127C140.315 18.1227 140.222 18.13 140.129 18.1346C140.063 18.138 139.997 18.1393 139.931 18.1393C139.308 18.1393 139.035 17.85 139.035 17.1862V13.9305H140.397V12.8784H139.035Z" fill="white"/>
<path d="M143.339 10.3789H142.1L142.093 19.1815H143.343V15.4836C143.324 15.2687 143.352 15.0526 143.425 14.8497C143.498 14.6469 143.615 14.4626 143.766 14.3096C143.918 14.1567 144.102 14.039 144.304 13.9638C144.506 13.8886 144.722 13.8587 144.937 13.876C145.829 13.876 146.299 14.3802 146.299 15.4017V19.1815H147.552V15.0951C147.592 14.7912 147.564 14.4819 147.471 14.1893C147.378 13.8973 147.222 13.6286 147.014 13.4038C146.805 13.1783 146.55 13.0021 146.266 12.8863C145.982 12.7706 145.675 12.7194 145.369 12.7354C144.97 12.7021 144.57 12.7932 144.224 12.9967C143.878 13.1996 143.604 13.5042 143.438 13.8694H143.339V10.3789Z" fill="white"/>
<path fill-rule="evenodd" clip-rule="evenodd" d="M153.8 18.8902C154.301 18.555 154.669 18.0542 154.839 17.4755H153.637C153.49 17.7389 153.268 17.9524 153 18.0888C152.731 18.2251 152.428 18.2783 152.129 18.2417C151.98 18.2431 151.833 18.2251 151.691 18.1879C151.609 18.1666 151.528 18.1393 151.45 18.1054C151.236 18.0129 151.044 17.8772 150.885 17.7063C150.726 17.5361 150.605 17.3339 150.529 17.113C150.453 16.8929 150.423 16.6588 150.443 16.4267V16.3588H154.914V15.9225C154.914 13.9339 153.852 12.7287 152.091 12.7287C151.672 12.7247 151.258 12.8112 150.875 12.9814C150.664 13.0759 150.466 13.1943 150.283 13.3346C150.136 13.4483 149.999 13.576 149.875 13.7164C149.598 14.0303 149.391 14.4001 149.27 14.8012C149.148 15.2015 149.114 15.6239 149.169 16.0382C149.112 16.4519 149.145 16.8729 149.267 17.2727C149.342 17.5188 149.45 17.7535 149.587 17.9704C149.671 18.1047 149.768 18.2317 149.874 18.3508C150.153 18.6621 150.495 18.9088 150.879 19.0744C151.262 19.2394 151.677 19.3192 152.094 19.3079C152.694 19.3731 153.298 19.2247 153.8 18.8902ZM153.634 15.4323H150.443L150.436 15.4357C150.433 15.2202 150.473 15.0053 150.554 14.8052C150.636 14.6056 150.756 14.4234 150.909 14.2711C151.062 14.1174 151.244 13.9957 151.445 13.9133C151.646 13.8308 151.861 13.7895 152.077 13.7909C152.29 13.7869 152.502 13.8268 152.698 13.9086C152.828 13.9631 152.949 14.0343 153.058 14.1208C153.115 14.166 153.168 14.2152 153.218 14.2677C153.365 14.4221 153.478 14.6056 153.549 14.8065C153.621 15.0067 153.649 15.2202 153.634 15.4323Z" fill="white"/>
</svg>
