<svg width="147" height="44" viewBox="0 0 147 44" fill="none" xmlns="http://www.w3.org/2000/svg">
<g clip-path="url(#clip0_901_19016)">
<path d="M141.059 8.96076H140.036V8.26562H142.857V8.96076H141.839V11.7312H141.059V8.96076ZM143.582 8.26562H144.402L145.301 9.72641L146.2 8.26562H147V11.7312H146.27V9.38892L145.326 10.9001H145.246L144.303 9.38892V11.7312H143.572L143.582 8.26562Z" fill="#115DA3"/>
<path d="M0 16.794V16.7034C0 7.52055 7.14832 0 16.9692 0C26.79 0 33.8589 7.42988 33.8589 16.6228V16.7185C33.8589 25.8963 26.7155 33.4168 16.8897 33.4168C7.06387 33.4168 0 25.9718 0 16.794ZM26.5218 16.794V16.7034C26.5218 11.1625 22.5179 6.55341 16.8798 6.55341C11.2416 6.55341 7.32218 11.0869 7.32218 16.6278V16.7235C7.32218 22.2645 11.326 26.8685 16.9692 26.8685C22.6123 26.8685 26.5218 22.3299 26.5218 16.794Z" fill="#115DA3"/>
<path d="M52.4226 8.84019L50.7535 15.3533C49.7696 14.3443 48.4414 13.7565 47.0428 13.7112C44.559 13.7112 42.9147 14.8244 42.9147 19.2118V32.918H36.5115V7.58088H42.9147V9.27339C43.5466 8.5646 44.3197 8.00004 45.183 7.61707C46.0462 7.23411 46.9798 7.04149 47.922 7.05198C48.7526 7.02516 49.5798 7.16985 50.3535 7.47725C51.1272 7.78466 51.8311 8.24836 52.4226 8.84019Z" fill="#115DA3"/>
<path d="M89.4707 32.918H83.0725V19.2118C83.0725 14.6783 81.8206 13.3283 79.1729 13.3283C76.5252 13.3283 75.2336 14.6783 75.2336 19.0707V32.918H68.8305V19.2118C68.8305 14.6783 67.5786 13.3283 64.9359 13.3283C62.2932 13.3283 60.9917 14.6783 60.9917 19.0707V32.918H54.5934V7.58085H60.9917V9.27336C61.6725 8.53765 62.5011 7.95863 63.4214 7.57541C64.3418 7.19219 65.3326 7.01369 66.3268 7.05195C69.4315 7.05195 71.2447 7.96872 73.0529 10.2858C74.722 8.50266 76.7637 7.05195 80.7973 7.05195C87.0117 7.05195 89.4707 11.4948 89.4707 18.6375V32.918Z" fill="#115DA3"/>
<path d="M91.9346 20.0778V19.9872C91.9115 18.2825 92.2272 16.5905 92.8629 15.0122C93.4985 13.4339 94.441 12.0015 95.6342 10.8004C96.8275 9.59941 98.247 8.65431 99.8082 8.02149C101.369 7.38867 103.04 7.08109 104.721 7.11709C109.316 7.11709 112.172 8.68366 114.458 11.2677L110.225 15.8818C108.68 14.2196 107.13 13.1567 104.676 13.1567C101.199 13.1567 98.76 16.2495 98.76 19.8914V19.9872C98.76 23.7701 101.169 26.8126 104.95 26.8126C107.269 26.8126 108.859 25.8051 110.543 24.1831L114.592 28.3338C112.227 30.9632 109.495 32.8673 104.627 32.8673C102.958 32.8998 101.3 32.5919 99.7504 31.9617C98.2012 31.3315 96.7928 30.392 95.6088 29.1989C94.4249 28.0058 93.4895 26.5836 92.8583 25.0167C92.2271 23.4498 91.913 21.7703 91.9346 20.0778Z" fill="#115DA3"/>
<path d="M114.651 20.1141V20.0234C114.651 12.9209 120.294 7.15332 127.89 7.15332C135.485 7.15332 141.039 12.8353 141.039 19.9327V20.0234C141.039 27.1258 135.396 32.8934 127.8 32.8934C120.205 32.8934 114.651 27.2216 114.651 20.1141ZM134.213 20.1141V20.0234C134.213 16.3815 131.62 13.198 127.8 13.198C123.826 13.198 121.477 16.2858 121.477 19.9327V20.0234C121.477 23.6703 124.07 26.8488 127.89 26.8488C131.834 26.8488 134.213 23.761 134.213 20.1141Z" fill="#115DA3"/>
<path d="M5.78723 41.6071L3.51208 38.0811H4.70927L6.30385 40.65L7.92824 38.0811H9.08569L6.80558 41.5819V43.899H5.81206L5.78723 41.6071Z" fill="#115DA3"/>
<path d="M9.13531 41.0083C9.13531 40.2014 9.45143 39.4275 10.0141 38.8569C10.5768 38.2864 11.34 37.9658 12.1357 37.9658C12.9315 37.9658 13.6946 38.2864 14.2573 38.8569C14.82 39.4275 15.1361 40.2014 15.1361 41.0083C15.1361 41.8152 14.82 42.5891 14.2573 43.1597C13.6946 43.7302 12.9315 44.0508 12.1357 44.0508C11.34 44.0508 10.5768 43.7302 10.0141 43.1597C9.45143 42.5891 9.13531 41.8152 9.13531 41.0083ZM14.1029 41.0083C14.1122 40.7378 14.0677 40.4682 13.9721 40.2156C13.8764 39.9629 13.7315 39.7324 13.5461 39.5377C13.3606 39.3431 13.1384 39.1884 12.8927 39.0827C12.6469 38.9771 12.3827 38.9227 12.1158 38.9229C11.8546 38.9233 11.5961 38.9773 11.356 39.0817C11.1158 39.186 10.899 39.3385 10.7184 39.53C10.5379 39.7216 10.3975 39.9481 10.3055 40.1961C10.2136 40.4441 10.1721 40.7084 10.1835 40.973C10.1699 41.2429 10.2109 41.5127 10.3038 41.7659C10.3967 42.0191 10.5396 42.2504 10.7238 42.4457C10.908 42.6409 11.1295 42.796 11.3749 42.9013C11.6202 43.0067 11.8842 43.0602 12.1506 43.0584C12.4138 43.0615 12.6747 43.01 12.9175 42.9071C13.1603 42.8042 13.3799 42.6522 13.5627 42.4602C13.7455 42.2682 13.8877 42.0404 13.9806 41.7908C14.0734 41.5411 14.1151 41.2748 14.1029 41.0083Z" fill="#115DA3"/>
<path d="M16.1893 41.4308V38.0811H17.1828V41.3905C17.1828 42.4685 17.7342 43.0427 18.6333 43.0427C19.5324 43.0427 20.0789 42.5037 20.0789 41.4308V38.0811H21.0724V41.3804C21.0724 43.1183 20.1087 43.9897 18.5886 43.9897C17.0685 43.9897 16.1893 43.1183 16.1893 41.4308Z" fill="#115DA3"/>
<path d="M22.4037 38.0817H24.962C25.5678 38.0476 26.1624 38.2576 26.6162 38.666C26.7765 38.8315 26.9029 39.0276 26.9882 39.2428C27.0734 39.4581 27.1158 39.6883 27.1129 39.9203C27.1254 40.3292 26.996 40.7297 26.7473 41.0518C26.4986 41.374 26.1463 41.5974 25.7518 41.6833L27.2967 43.8846H26.1045L24.6937 41.8697H23.4121V43.8846H22.4186L22.4037 38.0817ZM24.8875 40.968C25.6078 40.968 26.0648 40.5852 26.0648 39.9959C26.0648 39.3712 25.6227 39.0287 24.8775 39.0287H23.4121V40.9831L24.8875 40.968Z" fill="#115DA3"/>
<path d="M30.625 38.0811H32.8852C34.2314 38.0811 35.066 38.8568 35.066 40.0305C35.066 41.3351 34.0327 42.0151 32.771 42.0151H31.6334V43.8839H30.6399L30.625 38.0811ZM32.8058 41.1034C33.5658 41.1034 34.0427 40.6702 34.0427 40.0657C34.0427 39.3857 33.5459 39.028 32.8058 39.028H31.6334V41.1235L32.8058 41.1034Z" fill="#115DA3"/>
<path d="M36.0198 38.0817H38.5731C39.1789 38.0476 39.7735 38.2576 40.2273 38.666C40.3885 38.8309 40.5155 39.0268 40.6009 39.2422C40.6862 39.4576 40.7281 39.6882 40.724 39.9203C40.7365 40.3292 40.6071 40.7297 40.3584 41.0518C40.1097 41.374 39.7574 41.5974 39.3629 41.6833L40.9128 43.8846H39.6958L38.2899 41.8697H37.0282V43.8846H36.0347L36.0198 38.0817ZM38.5036 40.968C39.2288 40.968 39.6858 40.5852 39.6858 39.9959C39.6858 39.3712 39.2437 39.0287 38.4986 39.0287H37.0282V40.9831L38.5036 40.968Z" fill="#115DA3"/>
<path d="M43.9082 38.0205H44.8421L47.3657 43.8788H46.2877L45.7065 42.4734H42.9942L42.418 43.8989H41.3698L43.9082 38.0205ZM45.3538 41.5466L44.3603 39.2194L43.3668 41.5466H45.3538Z" fill="#115DA3"/>
<path d="M47.6389 41.008C47.6286 40.6082 47.6987 40.2106 47.8449 39.8392C47.991 39.4678 48.2102 39.1305 48.489 38.8477C48.7679 38.565 49.1005 38.3427 49.4668 38.1945C49.833 38.0463 50.2252 37.9752 50.6194 37.9856C51.0353 37.9694 51.45 38.0417 51.8368 38.1979C52.2235 38.354 52.5737 38.5906 52.8647 38.8923L52.214 39.6479C52.0075 39.425 51.7592 39.246 51.4837 39.1215C51.2082 38.9969 50.911 38.9293 50.6095 38.9226C50.3514 38.9277 50.0969 38.9851 49.861 39.0916C49.6252 39.1981 49.4128 39.3514 49.2364 39.5425C49.06 39.7337 48.9231 39.9587 48.8339 40.2043C48.7446 40.4499 48.7048 40.7112 48.7168 40.9727C48.7 41.2354 48.7356 41.4988 48.8214 41.7473C48.9073 41.9957 49.0416 42.2241 49.2164 42.4187C49.3912 42.6134 49.6029 42.7703 49.8388 42.8802C50.0747 42.99 50.3301 43.0505 50.5896 43.0581C50.9009 43.0563 51.2084 42.9887 51.4924 42.8594C51.7764 42.7302 52.0306 42.5422 52.2388 42.3076L52.8846 42.9725C52.5975 43.3094 52.2397 43.577 51.8375 43.7557C51.4352 43.9344 50.9987 44.0196 50.5598 44.0051C50.1719 44.01 49.7871 43.9355 49.4283 43.7861C49.0694 43.6368 48.744 43.4156 48.4713 43.1359C48.1987 42.8561 47.9844 42.5235 47.8414 42.1579C47.6984 41.7923 47.6295 41.4012 47.6389 41.008Z" fill="#115DA3"/>
<path d="M55.2691 39.028H53.4509V38.0811H58.1055V39.028H56.2874V43.894H55.2939L55.2691 39.028Z" fill="#115DA3"/>
<path d="M59.1487 38.0811H60.1423V43.899H59.1487V38.0811Z" fill="#115DA3"/>
<path d="M61.3543 41.008C61.3435 40.6102 61.4124 40.2144 61.5567 39.8444C61.7011 39.4744 61.918 39.138 62.1943 38.8554C62.4707 38.5729 62.8006 38.3501 63.1643 38.2006C63.5279 38.0511 63.9177 37.978 64.31 37.9856C64.726 37.9694 65.1407 38.0417 65.5274 38.1979C65.9141 38.354 66.2643 38.5906 66.5553 38.8923L65.9096 39.6479C65.703 39.425 65.4548 39.246 65.1793 39.1215C64.9038 38.9969 64.6066 38.9293 64.305 38.9226C64.0467 38.927 63.7919 38.984 63.5558 39.0902C63.3196 39.1965 63.107 39.3498 62.9304 39.541C62.7538 39.7323 62.617 39.9576 62.528 40.2035C62.439 40.4495 62.3997 40.711 62.4124 40.9727C62.3956 41.2371 62.4318 41.5021 62.5188 41.7519C62.6059 42.0017 62.742 42.2309 62.9189 42.4259C63.0958 42.6208 63.3098 42.7773 63.5481 42.886C63.7863 42.9947 64.0438 43.0532 64.305 43.0581C64.6155 43.0556 64.922 42.9876 65.2051 42.8584C65.4882 42.7292 65.7417 42.5416 65.9493 42.3076L66.5951 42.9725C66.308 43.3078 65.9509 43.5741 65.5496 43.7519C65.1483 43.9296 64.7129 44.0144 64.2752 44.0001C63.8878 44.0049 63.5034 43.9306 63.1449 43.7815C62.7864 43.6325 62.4612 43.4118 62.1886 43.1326C61.916 42.8533 61.7017 42.5213 61.5583 42.1563C61.415 41.7913 61.3456 41.4008 61.3543 41.008Z" fill="#115DA3"/>
<path d="M67.5737 38.0811H71.826V38.9978H68.5821V40.509H71.4584V41.4258H68.5821V42.9873H71.8657V43.899H67.5737V38.0811Z" fill="#115DA3"/>
<path d="M72.8046 42.7559H73.8925V43.8993H72.8046V42.7559Z" fill="#115DA3"/>
<path d="M77.2307 41.0077C77.2307 40.2015 77.5465 39.4283 78.1087 38.8582C78.6709 38.2881 79.4335 37.9678 80.2286 37.9678C81.0237 37.9678 81.7862 38.2881 82.3484 38.8582C82.9106 39.4283 83.2265 40.2015 83.2265 41.0077C83.2265 41.814 82.9106 42.5872 82.3484 43.1573C81.7862 43.7274 81.0237 44.0477 80.2286 44.0477C79.4335 44.0477 78.6709 43.7274 78.1087 43.1573C77.5465 42.5872 77.2307 41.814 77.2307 41.0077ZM82.1684 41.0077C82.1757 40.7419 82.1309 40.4772 82.0368 40.2289C81.9427 39.9807 81.801 39.7538 81.62 39.5613C81.439 39.3688 81.2222 39.2146 80.9821 39.1075C80.742 39.0005 80.4834 38.9427 80.2211 38.9374C79.9599 38.9379 79.7014 38.9919 79.4612 39.0962C79.2211 39.2006 79.0042 39.3531 78.8237 39.5446C78.6432 39.7361 78.5027 39.9627 78.4108 40.2107C78.3189 40.4586 78.2774 40.7229 78.2887 40.9876C78.2774 41.2545 78.3193 41.521 78.4119 41.771C78.5045 42.0211 78.646 42.2497 78.8278 42.443C79.0097 42.6363 79.2281 42.7904 79.4701 42.8961C79.7121 43.0017 79.9726 43.0568 80.236 43.0579C80.4967 43.0568 80.7544 43.0023 80.9937 42.8976C81.233 42.7929 81.4489 42.6402 81.6285 42.4486C81.8081 42.2571 81.9477 42.0307 82.0387 41.7831C82.1298 41.5355 82.1705 41.2717 82.1585 41.0077H82.1684Z" fill="#115DA3"/>
<path d="M84.2796 41.4308V38.0811H85.2731V41.3905C85.2731 42.4685 85.8195 43.0427 86.7236 43.0427C87.6277 43.0427 88.1642 42.5037 88.1642 41.4308V38.0811H89.1577V41.3804C89.1577 43.1183 88.1642 43.9897 86.674 43.9897C85.1837 43.9897 84.2796 43.1183 84.2796 41.4308Z" fill="#115DA3"/>
<path d="M90.4891 38.0817H93.0474C93.6532 38.0476 94.2478 38.2576 94.7016 38.666C94.8619 38.8315 94.9883 39.0276 95.0736 39.2428C95.1588 39.4581 95.2012 39.6883 95.1983 39.9203C95.2108 40.3292 95.0814 40.7297 94.8327 41.0518C94.584 41.374 94.2317 41.5974 93.8372 41.6833L95.3871 43.8846H94.1899L92.7791 41.8697H91.4975V43.8846H90.504L90.4891 38.0817ZM92.9729 40.968C93.6931 40.968 94.1551 40.5852 94.1551 39.9959C94.1551 39.3712 93.713 39.0287 92.9679 39.0287H91.4776V40.9831L92.9729 40.968Z" fill="#115DA3"/>
<path d="M98.7103 38.0811H100.976C102.317 38.0811 103.151 38.8568 103.151 40.0305C103.151 41.3351 102.123 42.0151 100.861 42.0151H99.7187V43.8839H98.7252L98.7103 38.0811ZM100.891 41.1034C101.656 41.1034 102.128 40.6702 102.128 40.0657C102.128 39.3857 101.631 39.028 100.891 39.028H99.7187V41.1235L100.891 41.1034Z" fill="#115DA3"/>
<path d="M104.105 38.0817H106.663C107.269 38.0476 107.864 38.2576 108.318 38.666C108.478 38.8315 108.604 39.0275 108.69 39.2428C108.775 39.4581 108.817 39.6883 108.814 39.9203C108.827 40.3292 108.697 40.7297 108.449 41.0518C108.2 41.374 107.848 41.5974 107.453 41.6833L108.983 43.8997H107.791L106.38 41.8848H105.118V43.8997H104.125L104.105 38.0817ZM106.589 40.968C107.309 40.968 107.766 40.5852 107.766 39.9959C107.766 39.3712 107.324 39.0287 106.579 39.0287H105.114V40.9831L106.589 40.968Z" fill="#115DA3"/>
<path d="M110.007 38.0811H111V43.899H110.007V38.0811Z" fill="#115DA3"/>
<path d="M112.212 41.0077C112.212 40.2015 112.528 39.4283 113.09 38.8582C113.652 38.2881 114.415 37.9678 115.21 37.9678C116.005 37.9678 116.768 38.2881 117.33 38.8582C117.892 39.4283 118.208 40.2015 118.208 41.0077C118.208 41.814 117.892 42.5872 117.33 43.1573C116.768 43.7274 116.005 44.0477 115.21 44.0477C114.415 44.0477 113.652 43.7274 113.09 43.1573C112.528 42.5872 112.212 41.814 112.212 41.0077ZM117.15 41.0077C117.157 40.7419 117.112 40.4772 117.018 40.2289C116.924 39.9807 116.783 39.7538 116.602 39.5613C116.421 39.3688 116.204 39.2146 115.964 39.1075C115.723 39.0005 115.465 38.9427 115.203 38.9374C114.941 38.9379 114.683 38.9919 114.443 39.0962C114.203 39.2006 113.986 39.3531 113.805 39.5446C113.625 39.7361 113.484 39.9627 113.392 40.2107C113.3 40.4586 113.259 40.7229 113.27 40.9876C113.259 41.2545 113.301 41.521 113.393 41.771C113.486 42.0211 113.628 42.2497 113.809 42.443C113.991 42.6363 114.21 42.7904 114.452 42.8961C114.694 43.0017 114.954 43.0568 115.218 43.0579C115.479 43.0582 115.738 43.0046 115.978 42.9005C116.219 42.7964 116.436 42.6439 116.617 42.4523C116.797 42.2606 116.938 42.0338 117.029 41.7855C117.121 41.5372 117.162 41.2726 117.15 41.0077Z" fill="#115DA3"/>
<path d="M119.351 38.0817H121.899C122.505 38.0476 123.099 38.2576 123.553 38.666C123.714 38.8314 123.84 39.0274 123.926 39.2427C124.011 39.458 124.053 39.6883 124.05 39.9203C124.064 40.3288 123.935 40.7291 123.687 41.0514C123.439 41.3736 123.088 41.5973 122.694 41.6833L124.239 43.8846H123.046L121.636 41.8697H120.359V43.8846H119.365L119.351 38.0817ZM121.834 40.968C122.555 40.968 123.012 40.5852 123.012 39.9959C123.012 39.3712 122.57 39.0287 121.824 39.0287H120.359V40.9831L121.834 40.968Z" fill="#115DA3"/>
<path d="M125.252 38.0811H126.246V43.899H125.252V38.0811Z" fill="#115DA3"/>
<path d="M129.122 39.028H127.299V38.0811H131.953V39.028H130.135V43.894H129.142L129.122 39.028Z" fill="#115DA3"/>
<path d="M134.626 41.6071L132.351 38.0811H133.548L135.142 40.65L136.767 38.0811H137.919L135.644 41.5819V43.899H134.626V41.6071Z" fill="#115DA3"/>
<path d="M137.482 42.7559H138.57V43.8993H137.482V42.7559Z" fill="#115DA3"/>
</g>
<defs>
<clipPath id="clip0_901_19016">
<rect width="147" height="44" fill="white"/>
</clipPath>
</defs>
</svg>
